<svg xmlns="http://www.w3.org/2000/svg" viewBox="0 0 64 64"><title>Artboard-24</title><g id="Web_hosting" data-name="Web hosting"><rect y="4" width="64" height="44" rx="1" ry="1" style="fill:#e6ecff"/><rect x="4" y="8" width="56" height="34" rx="1" ry="1" style="fill:#d0dbf7"/><rect x="23" y="52" width="18" height="12" rx="1" ry="1" style="fill:#376cfb"/><path d="M64,46H0v7a1,1,0,0,0,1,1H63a1,1,0,0,0,1-1Z" style="fill:#4294ff"/><path d="M34,51H30a1,1,0,0,1,0-2h4a1,1,0,0,1,0,2Z" style="fill:#376cfb"/><rect x="15" y="22" width="34" height="8" rx="1" ry="1" style="fill:#376cfb"/><path d="M48,36H38a1,1,0,0,0-1,1v5H49V37A1,1,0,0,0,48,36Z" style="fill:#376cfb"/><path d="M26,36H16a1,1,0,0,0-1,1v5H27V37A1,1,0,0,0,26,36Z" style="fill:#376cfb"/><rect x="12" y="28" width="40" height="10" rx="1" ry="1" style="fill:#4294ff"/><path d="M45,64H19a1,1,0,0,1,0-2H45a1,1,0,0,1,0,2Z" style="fill:#4294ff"/><circle cx="47" cy="33" r="1" style="fill:#376cfb"/><circle cx="44" cy="33" r="1" style="fill:#376cfb"/><circle cx="41" cy="33" r="1" style="fill:#376cfb"/><path d="M29,34H17a1,1,0,0,1,0-2H29a1,1,0,0,1,0,2Z" style="fill:#376cfb"/><rect x="15" y="8" width="34" height="8" rx="1" ry="1" style="fill:#376cfb"/><rect x="12" y="14" width="40" height="10" rx="1" ry="1" style="fill:#4294ff"/><circle cx="47" cy="19" r="1" style="fill:#376cfb"/><circle cx="44" cy="19" r="1" style="fill:#376cfb"/><circle cx="41" cy="19" r="1" style="fill:#376cfb"/><path d="M29,20H17a1,1,0,0,1,0-2H29a1,1,0,0,1,0,2Z" style="fill:#376cfb"/><rect x="12" width="40" height="10" rx="1" ry="1" style="fill:#4294ff"/><circle cx="47" cy="5" r="1" style="fill:#376cfb"/><circle cx="44" cy="5" r="1" style="fill:#376cfb"/><circle cx="41" cy="5" r="1" style="fill:#376cfb"/><path d="M29,6H17a1,1,0,0,1,0-2H29a1,1,0,0,1,0,2Z" style="fill:#376cfb"/></g></svg>