<svg xmlns="http://www.w3.org/2000/svg" viewBox="0 0 88 88"><title>Artboard-37</title><g id="Blogging"><path d="M52.986,73.836A1,1,0,0,0,52,73H36a1,1,0,0,0-.986.836l-2,12A1,1,0,0,0,34,87H54a1,1,0,0,0,.986-1.164Z" style="fill:#376cfb"/><path d="M81,15H7a5.006,5.006,0,0,0-5,5V66a1,1,0,0,0,1,1H85a1,1,0,0,0,1-1V20A5.006,5.006,0,0,0,81,15Z" style="fill:#e6ecff"/><rect x="6" y="19" width="76" height="42" rx="1" ry="1" style="fill:#d0dbf7"/><path d="M85,65H2v5a5,5,0,0,0,5,5H85a1,1,0,0,0,1-1V66A1,1,0,0,0,85,65Z" style="fill:#4294ff"/><path d="M47,71H41a1,1,0,0,1,0-2h6a1,1,0,0,1,0,2Z" style="fill:#376cfb"/><path d="M58,87H30a1,1,0,0,1,0-2H58a1,1,0,0,1,0,2Z" style="fill:#4294ff"/><path d="M66,1H22a1,1,0,0,0-1,1V61H67V2A1,1,0,0,0,66,1Z" style="fill:#4294ff"/><rect x="26" y="6" width="36" height="22" rx="1" ry="1" style="fill:#376cfb"/><path d="M61,54H27a1,1,0,0,0-1,1v6H62V55A1,1,0,0,0,61,54Z" style="fill:#2946ed"/><path d="M62,21.58V27a1,1,0,0,1-1,1H50.59l-7.8-7.79a1.008,1.008,0,0,1,0-1.42l7.5-7.5a1.008,1.008,0,0,1,1.42,0Z" style="fill:#213bd6"/><circle cx="44" cy="12" r="1" style="fill:#2946ed"/><path d="M61,32H27a1,1,0,0,1,0-2H61a1,1,0,0,1,0,2Z" style="fill:#2946ed"/><path d="M53,36H27a1,1,0,0,1,0-2H53a1,1,0,0,1,0,2Z" style="fill:#2946ed"/><path d="M53,40H27a1,1,0,0,1,0-2H53a1,1,0,0,1,0,2Z" style="fill:#2946ed"/><path d="M53,44H27a1,1,0,0,1,0-2H53a1,1,0,0,1,0,2Z" style="fill:#2946ed"/><path d="M53,48H27a1,1,0,0,1,0-2H53a1,1,0,0,1,0,2Z" style="fill:#2946ed"/><path d="M53,52H27a1,1,0,0,1,0-2H53a1,1,0,0,1,0,2Z" style="fill:#2946ed"/><path d="M61,36H57a1,1,0,0,1,0-2h4a1,1,0,0,1,0,2Z" style="fill:#2946ed"/><path d="M61,40H57a1,1,0,0,1,0-2h4a1,1,0,0,1,0,2Z" style="fill:#2946ed"/><path d="M61,44H57a1,1,0,0,1,0-2h4a1,1,0,0,1,0,2Z" style="fill:#2946ed"/><path d="M61,48H57a1,1,0,0,1,0-2h4a1,1,0,0,1,0,2Z" style="fill:#2946ed"/><path d="M61,52H57a1,1,0,0,1,0-2h4a1,1,0,0,1,0,2Z" style="fill:#2946ed"/><path d="M85.848,36.47l-5-8a1.04,1.04,0,0,0-1.7,0l-5,8A1,1,0,0,0,74,37V81a6,6,0,0,0,12,0V37A1,1,0,0,0,85.848,36.47Z" style="fill:#376cfb"/><path d="M80,79a1,1,0,0,1-1-1V37a1,1,0,0,1,2,0V78A1,1,0,0,1,80,79Z" style="fill:#2946ed"/><path d="M53.41,28H27a1,1,0,0,1-1-1v-.41l12.29-12.3a1.008,1.008,0,0,1,1.42,0Z" style="fill:#2946ed"/><path d="M86,37H74a.988.988,0,0,1,.15-.53l5-8a1.048,1.048,0,0,1,1.7,0l5,8A.988.988,0,0,1,86,37Z" style="fill:#2946ed"/><path d="M86,77v4a6,6,0,0,1-12,0V77Z" style="fill:#2946ed"/></g></svg>