<svg xmlns="http://www.w3.org/2000/svg" viewBox="0 0 88 88"><title>Artboard-23</title><g id="Rocket_launch" data-name="Rocket launch"><path d="M33.707,62.293l-8-8a1,1,0,0,0-1.414,0A27.668,27.668,0,0,0,17.175,66.56l-1.14,4.177A1,1,0,0,0,17,72a1.028,1.028,0,0,0,.263-.035l4.178-1.14a27.656,27.656,0,0,0,12.266-7.118A1,1,0,0,0,33.707,62.293Z" style="fill:#376cfb"/><path d="M44.924,23.617A1,1,0,0,0,44,23H31a1,1,0,0,0-.707.293l-17,17A1,1,0,0,0,14,42H29.74a1,1,0,0,0,.915-.6c.322-.73.713-1.5,1.2-2.36a28.782,28.782,0,0,1,4.687-6.166l8.17-8.17A1,1,0,0,0,44.924,23.617Z" style="fill:#4294ff"/><path d="M64.383,43.076a1,1,0,0,0-1.09.217l-8.17,8.17a28.756,28.756,0,0,1-6.163,4.685c-.856.481-1.628.873-2.363,1.2a1,1,0,0,0-.6.915V74a1,1,0,0,0,.617.924A.987.987,0,0,0,47,75a1,1,0,0,0,.707-.293l17-17A1,1,0,0,0,65,57V44A1,1,0,0,0,64.383,43.076Z" style="fill:#4294ff"/><path d="M86,1A48.964,48.964,0,0,0,51.15,15.436L35.124,31.462C31.181,35.4,29.353,39.176,28,44.586c-.085.341-.956,1.873-.707,2.121l14,14A1,1,0,0,0,42,61c.081,0,1.333-.979,1.414-1,5.41-1.352,9.182-3.181,13.124-7.124L72.564,36.85A48.964,48.964,0,0,0,87,2,1,1,0,0,0,86,1Z" style="fill:#e6ecff"/><path d="M87,2a49.149,49.149,0,0,1-4.91,21.5L64.5,5.92A49.018,49.018,0,0,1,86,1,1,1,0,0,1,87,2Z" style="fill:#4294ff"/><circle cx="61" cy="27" r="7" style="fill:#4294ff"/><path d="M28,44.586l-6.707,6.707a1,1,0,0,0,0,1.414l14,14a1,1,0,0,0,1.414,0L43.414,60Z" style="fill:#4294ff"/><path d="M6,56a1,1,0,0,1-.707-1.707l9-9a1,1,0,0,1,1.414,1.414l-9,9A1,1,0,0,1,6,56Z" style="fill:#376cfb"/><path d="M6,69a1,1,0,0,1-.707-1.707l10-10a1,1,0,0,1,1.414,1.414l-10,10A1,1,0,0,1,6,69Z" style="fill:#376cfb"/><path d="M33,83a1,1,0,0,1-.707-1.707l9-9a1,1,0,1,1,1.414,1.414l-9,9A1,1,0,0,1,33,83Z" style="fill:#376cfb"/><path d="M20,83a1,1,0,0,1-.707-1.707l10-10a1,1,0,1,1,1.414,1.414l-10,10A1,1,0,0,1,20,83Z" style="fill:#376cfb"/><path d="M2,87a1,1,0,0,1-.707-1.707l12-12a1,1,0,1,1,1.414,1.414l-12,12A1,1,0,0,1,2,87Z" style="fill:#376cfb"/><path d="M40,49a1,1,0,0,1-.707-1.707l13-13a1,1,0,0,1,1.414,1.414l-13,13A1,1,0,0,1,40,49Z" style="fill:#4294ff"/></g></svg>